nColumns=19
nRows=104
DataType=double
version=3
OpenSimVersion=4.1
endheader
time	ground_force_calcn_r_vx	ground_force_calcn_r_vy	ground_force_calcn_r_vz	ground_force_calcn_r_px	ground_force_calcn_r_py	ground_force_calcn_r_pz	ground_force_calcn_r_mx	ground_force_calcn_r_my	ground_force_calcn_r_mz	ground_force_calcn_l_vx	ground_force_calcn_l_vy	ground_force_calcn_l_vz	ground_force_calcn_l_px	ground_force_calcn_l_py	ground_force_calcn_l_pz	ground_force_calcn_l_mx	ground_force_calcn_l_my	ground_force_calcn_l_mz
0.008333	0	0	0	0	0	0	0	0	0	0	0	0	0	0	0	0	0	0
0.016667	0	0	0	0	0	0	0	0	0	0	0	0	0	0	0	0	0	0
0.025	0	0	0	0	0	0	0	0	0	0	0	0	0	0	0	0	0	0
0.033333	0	0	0	0	0	0	0	0	0	0	0	0	0	0	0	0	0	0
0.041667	0	0	0	0	0	0	0	0	0	0	0	0	0	0	0	0	0	0
0.05	0	0	0	0	0	0	0	0	0	0	0	0	0	0	0	0	0	0
0.058333	0	0	0	0	0	0	0	0	0	0	0	0	0	0	0	0	0	0
0.066667	0	0	0	0	0	0	0	0	0	0	0	0	0	0	0	0	0	0
0.075	0	0	0	0	0	0	0	0	0	0	0	0	0	0	0	0	0	0
0.083333	0	0	0	0	0	0	0	0	0	0	0	0	0	0	0	0	0	0
0.091667	0	0	0	0	0	0	0	0	0	0	0	0	0	0	0	0	0	0
0.1	-0.849772	11.5327	-0.516351	0.706905	0	-0.148019	-0.0483588	0.6563	-0.0293845	0	0	0	0	0	0	0	0	0
0.108333	-7.27872	28.3292	-4.41397	0.865707	0	-0.274756	-0.129837	0.505332	-0.0787356	0	0	0	0	0	0	0	0	0
0.116667	-28.2726	81.2122	-10.1389	0.91463	0	-0.335158	-0.0827219	0.237616	-0.0296651	0	0	0	0	0	0	0	0	0
0.125	-68.0551	219.388	-15.0853	0.924144	0	-0.354902	0.140583	-0.453196	0.0311621	0	0	0	0	0	0	0	0	0
0.133333	-116.838	492.353	-13.8588	0.926121	0	-0.359595	0.423078	-1.78285	0.050184	0	0	0	0	0	0	0	0	0
0.141667	-153.453	865.621	-1.93534	0.923715	0	-0.358714	0.636772	-3.59201	0.00803095	0	0	0	0	0	0	0	0	0
0.15	-170.903	1187.56	16.7193	0.915525	0	-0.356036	0.773319	-5.37361	-0.0756534	0	0	0	0	0	0	0	0	0
0.158333	-189.484	1350.32	27.574	0.901715	0	-0.353449	0.914377	-6.51616	-0.133062	0	0	0	0	0	0	0	0	0
0.166667	-221.335	1407.68	18.5193	0.88243	0	-0.352246	1.03853	-6.60501	-0.086895	0	0	0	0	0	0	0	0	0
0.175	-242.262	1463.84	-4.84322	0.856825	0	-0.352052	0.930763	-5.62402	0.0186075	0	0	0	0	0	0	0	0	0
0.183333	-228.584	1557.8	-24.3661	0.825863	0	-0.350495	0.563055	-3.83721	0.0600191	0	0	0	0	0	0	0	0	0
0.191667	-185.713	1660.75	-30.0189	0.793579	0	-0.346995	0.175679	-1.57102	0.028397	0	0	0	0	0	0	0	0	0
0.2	-129.427	1726.59	-28.4828	0.762656	0	-0.343547	-0.0620185	0.827347	-0.0136484	0	0	0	0	0	0	0	0	0
0.208333	-67.7632	1731.96	-30.2615	0.731962	0	-0.341676	-0.118364	3.02527	-0.0528589	0	0	0	0	0	0	0	0	0
0.216667	-2.23566	1682.33	-35.4837	0.69949	0	-0.340684	-0.00627258	4.72011	-0.0995564	0	0	0	0	0	0	0	0	0
0.225	63.7479	1594.05	-36.4036	0.665184	0	-0.339147	0.22626	5.65775	-0.129207	0	0	0	0	0	0	0	0	0
0.233333	125.289	1476.04	-28.7543	0.62988	0	-0.337069	0.484215	5.70456	-0.111129	0	0	0	0	0	0	0	0	0
0.241667	177.672	1330.14	-15.2729	0.594495	0	-0.335613	0.656255	4.91305	-0.0564123	0	0	0	0	0	0	0	0	0
0.25	214.241	1157.47	-0.510804	0.560163	0	-0.335371	0.652172	3.52348	-0.00155495	0	0	0	0	0	0	0	0	0
0.258333	231.493	963.217	12.7958	0.527616	0	-0.33569	0.453784	1.88814	0.025083	0	0	0	0	0	0	0	0	0
0.266667	231.411	758.269	22.9462	0.497069	0	-0.335637	0.111987	0.366948	0.0111044	0	0	0	0	0	0	0	0	0
0.275	215.735	557.753	28.4959	0.468445	0	-0.334523	-0.291761	-0.754307	-0.0385379	0	0	0	0	0	0	0	0	0
0.283333	182.369	377.526	28.7972	0.441527	0	-0.331747	-0.648141	-1.34173	-0.102346	0	0	0	0	0	0	0	0	0
0.291667	133.91	230.465	24.4906	0.415374	0	-0.32712	-0.848686	-1.46063	-0.155216	0	0	0	0	0	0	0	0	0
0.3	82.876	124.418	17.5979	0.389188	0	-0.320606	-0.866672	-1.3011	-0.184029	0	0	0	0	0	0	0	0	0
0.308333	42.9117	59.1797	10.9239	0.377147	0	-0.307038	-0.764751	-1.05467	-0.19468	0	0	0	0	0	0	0	0	0
0.316667	19.2596	26.2168	6.46958	0.453334	0	-0.261982	-0.629963	-0.857527	-0.211614	0	0	0	0	0	0	0	0	0
0.325	8.24006	12.6686	4.29318	0.712384	0	-0.156946	-0.511939	-0.787077	-0.266728	0	0	0	0	0	0	0	0	0
0.333333	0	0	0	0	0	0	0	0	0	0	0	0	0	0	0	0	0	0
0.341667	0	0	0	0	0	0	0	0	0	0	0	0	0	0	0	0	0	0
0.35	0	0	0	0	0	0	0	0	0	0	0	0	0	0	0	0	0	0
0.358333	0	0	0	0	0	0	0	0	0	0	0	0	0	0	0	0	0	0
0.366667	0	0	0	0	0	0	0	0	0	0	0	0	0	0	0	0	0	0
0.375	0	0	0	0	0	0	0	0	0	0	0	0	0	0	0	0	0	0
0.383333	0	0	0	0	0	0	0	0	0	0	0	0	0	0	0	0	0	0
0.391667	0	0	0	0	0	0	0	0	0	0	0	0	0	0	0	0	0	0
0.4	0	0	0	0	0	0	0	0	0	-1.87053	18.1577	-1.71261	0.795078	0	-0.22543	0.0314341	-0.305137	0.0287801
0.408333	0	0	0	0	0	0	0	0	0	-15.8317	43.5706	-4.60352	0.849947	0	-0.36245	0.11607	-0.319437	0.0337506
0.416667	0	0	0	0	0	0	0	0	0	-45.6596	119.901	-6.57345	0.905588	0	-0.423399	0.217352	-0.570763	0.0312915
0.425	0	0	0	0	0	0	0	0	0	-92.0317	297.919	-3.87777	0.934752	0	-0.434878	0.30146	-0.975866	0.012702
0.433333	0	0	0	0	0	0	0	0	0	-141.374	591.2	5.92854	0.945275	0	-0.430944	0.315506	-1.31939	-0.0132308
0.441667	0	0	0	0	0	0	0	0	0	-173.322	914.431	18.2692	0.942866	0	-0.424016	0.257893	-1.36062	-0.0271834
0.45	0	0	0	0	0	0	0	0	0	-188.319	1151.64	21.5357	0.929459	0	-0.420319	0.163387	-0.999167	-0.0186845
0.458333	0	0	0	0	0	0	0	0	0	-205.447	1289.2	10.2689	0.906922	0	-0.423162	0.0627294	-0.393632	-0.00313542
0.466667	0	0	0	0	0	0	0	0	0	-227.015	1388.86	-2.69014	0.880382	0	-0.429687	-0.0138819	0.0849286	-0.000164501
0.475	0	0	0	0	0	0	0	0	0	-235.866	1495.29	2.08378	0.854129	0	-0.433074	-0.0119791	0.0759423	0.00010583
0.483333	0	0	0	0	0	0	0	0	0	-217.275	1602.96	26.1051	0.826831	0	-0.43207	0.074861	-0.552291	-0.0089944
0.491667	0	0	0	0	0	0	0	0	0	-169.472	1679.75	50.1374	0.795882	0	-0.431273	0.166249	-1.64781	-0.0491839
0.5	0	0	0	0	0	0	0	0	0	-102.205	1705.13	57.6062	0.760678	0	-0.433611	0.173526	-2.895	-0.0978046
0.508333	0	0	0	0	0	0	0	0	0	-30.1487	1684.52	51.7568	0.722961	0	-0.43717	0.0714212	-3.99057	-0.12261
0.516667	0	0	0	0	0	0	0	0	0	35.6799	1632.8	45.6249	0.685775	0	-0.438685	-0.103278	-4.72624	-0.132064
0.525	0	0	0	0	0	0	0	0	0	95.9981	1552.68	43.1888	0.650869	0	-0.437871	-0.307316	-4.97055	-0.138259
0.533333	0	0	0	0	0	0	0	0	0	155.043	1436.19	37.8115	0.617572	0	-0.43684	-0.501447	-4.64498	-0.122291
0.541667	0	0	0	0	0	0	0	0	0	208.092	1278.54	24.8976	0.584454	0	-0.436837	-0.6128	-3.76513	-0.07332
0.55	0	0	0	0	0	0	0	0	0	244.463	1086.37	7.99105	0.551806	0	-0.436871	-0.560585	-2.49118	-0.0183245
0.558333	0	0	0	0	0	0	0	0	0	256.253	873.277	-7.04909	0.52103	0	-0.435407	-0.324056	-1.10434	0.00891422
0.566667	0	0	0	0	0	0	0	0	0	243.602	655.208	-18.059	0.491875	0	-0.432059	0.0308353	0.0829366	-0.00228592
0.575	0	0	0	0	0	0	0	0	0	210.103	450.601	-25.4764	0.462614	0	-0.428153	0.379607	0.814133	-0.0460299
0.583333	0	0	0	0	0	0	0	0	0	160.325	277.855	-28.745	0.432282	0	-0.426005	0.562644	0.975105	-0.100878
0.591667	0	0	0	0	0	0	0	0	0	103.508	150.299	-26.4854	0.405433	0	-0.425325	0.450166	0.653669	-0.115188
0.6	0	0	0	0	0	0	0	0	0	54.7984	71.4106	-19.4662	0.398157	0	-0.416794	0.0480295	0.0625897	-0.0170616
0.608333	0	0	0	0	0	0	0	0	0	25.7101	33.2741	-11.1661	0.457717	0	-0.375739	-0.503648	-0.651822	0.218738
0.616667	0	0	0	0	0	0	0	0	0	12.0785	18.657	-4.84064	0.623828	0	-0.308482	-1.04309	-1.6112	0.418032
0.625	0	0	0	0	0	0	0	0	0	3.66368	11.4366	-1.23439	0.767346	0	-0.230269	-0.999363	-3.11964	0.33671
0.633333	0	0	0	0	0	0	0	0	0	0	0	0	0	0	0	0	0	0
0.641667	0	0	0	0	0	0	0	0	0	0	0	0	0	0	0	0	0	0
0.65	0	0	0	0	0	0	0	0	0	0	0	0	0	0	0	0	0	0
0.658333	0	0	0	0	0	0	0	0	0	0	0	0	0	0	0	0	0	0
0.666667	0	0	0	0	0	0	0	0	0	0	0	0	0	0	0	0	0	0
0.675	0	0	0	0	0	0	0	0	0	0	0	0	0	0	0	0	0	0
0.683333	0	0	0	0	0	0	0	0	0	0	0	0	0	0	0	0	0	0
0.691667	-1.33412	13.0784	-0.563347	0.582072	0	-0.121621	-0.0936049	0.91761	-0.0395257	0	0	0	0	0	0	0	0	0
0.7	-8.86288	26.8794	-4.00617	0.79086	0	-0.247339	-0.288323	0.874428	-0.130327	0	0	0	0	0	0	0	0	0
0.708333	-30.1403	74.9468	-9.09029	0.922254	0	-0.300599	-0.0736616	0.183167	-0.0222163	0	0	0	0	0	0	0	0	0
0.716667	-69.2261	205.22	-13.8089	0.958408	0	-0.315695	0.424755	-1.25918	0.0847279	0	0	0	0	0	0	0	0	0
0.725	-120.402	462.471	-14.216	0.967365	0	-0.319672	0.893273	-3.43113	0.10547	0	0	0	0	0	0	0	0	0
0.733333	-166.724	812.254	-7.29342	0.96521	0	-0.319771	1.20038	-5.84811	0.0525115	0	0	0	0	0	0	0	0	0
0.741667	-196.631	1120.16	3.46881	0.954614	0	-0.318421	1.37187	-7.81522	-0.0242015	0	0	0	0	0	0	0	0	0
0.75	-221.342	1293.41	7.08414	0.937794	0	-0.317023	1.48507	-8.67795	-0.0475302	0	0	0	0	0	0	0	0	0
0.758333	-251.877	1374.89	-4.76943	0.916875	0	-0.316697	1.48001	-8.07874	0.0280248	0	0	0	0	0	0	0	0	0
0.766667	-271.496	1451.06	-27.1436	0.892178	0	-0.317096	1.14109	-6.09875	0.114084	0	0	0	0	0	0	0	0	0
0.775	-259.44	1557.04	-46.8292	0.862864	0	-0.316426	0.513767	-3.08341	0.0927356	0	0	0	0	0	0	0	0	0
0.783333	-216.873	1668.89	-57.1073	0.830467	0	-0.314293	-0.0707527	0.544457	-0.0186307	0	0	0	0	0	0	0	0	0
0.791667	-158.744	1743.87	-62.5663	0.797525	0	-0.312001	-0.389821	4.28236	-0.153641	0	0	0	0	0	0	0	0	0
0.8	-96.3688	1758.5	-69.6454	0.76455	0	-0.310503	-0.417654	7.62117	-0.301837	0	0	0	0	0	0	0	0	0
0.808333	-30.2448	1718.1	-77.5892	0.731046	0	-0.309378	-0.17836	10.1319	-0.457559	0	0	0	0	0	0	0	0	0
0.816667	39.2495	1639.84	-80.636	0.69729	0	-0.30777	0.275301	11.502	-0.565591	0	0	0	0	0	0	0	0	0
0.825	105.572	1532.76	-75.4277	0.663955	0	-0.305747	0.798139	11.5878	-0.570243	0	0	0	0	0	0	0	0	0
0.833333	161.56	1397.75	-63.3165	0.631421	0	-0.304215	1.20955	10.4645	-0.474031	0	0	0	0	0	0	0	0	0
0.841667	201.826	1233.76	-47.1879	0.59901	0	-0.303831	1.3765	8.41449	-0.321831	0	0	0	0	0	0	0	0	0
0.85	225.659	1043.66	-29.1136	0.565119	0	-0.304448	1.26549	5.85281	-0.163267	0	0	0	0	0	0	0	0	0
0.858333	234.038	837.376	-11.0387	0.530172	0	-0.305445	0.90646	3.24327	-0.0427545	0	0	0	0	0	0	0	0	0
0.866667	225.497	629.316	4.30581	0.497829	0	-0.305934	0.365639	1.02042	0.00698177	0	0	0	0	0	0	0	0	0
